<svg xmlns="http://www.w3.org/2000/svg" xml:space="preserve" id="_x32_" fill="#fff" version="1.1" viewBox="0 0 512 512"><g id="SVGRepo_iconCarrier"><path d="M77.609 448h52.781c7.516 0 13.609-6.094 13.609-13.609V315.094c0-7.516-6.094-13.609-13.609-13.609H77.609c-7.516 0-13.609 6.094-13.609 13.609v119.297C64 441.906 70.094 448 77.609 448zM197.609 448h52.781c7.516 0 13.609-6.094 13.609-13.609V235.094c0-7.516-6.094-13.609-13.609-13.609h-52.781c-7.516 0-13.609 6.094-13.609 13.609v199.297c0 7.515 6.094 13.609 13.609 13.609zM317.609 448h52.781c7.516 0 13.609-6.094 13.609-13.609V139.094c0-7.516-6.094-13.609-13.609-13.609h-52.781c-7.516 0-13.609 6.094-13.609 13.609v295.297c0 7.515 6.094 13.609 13.609 13.609zM437.609 448h52.781c7.516 0 13.609-6.094 13.609-13.609V43.094c0-7.516-6.094-13.609-13.609-13.609h-52.781c-7.516 0-13.609 6.094-13.609 13.609v391.297c0 7.515 6.094 13.609 13.609 13.609z" class="st0"/><path d="M498.391 482H45.609C38.094 482 32 475.906 32 468.391V13.609C32 6.094 25.906 0 18.391 0H13.61C6.094 0 0 6.094 0 13.609V498.39C0 505.906 6.094 512 13.609 512H498.39c7.516 0 13.609-6.094 13.609-13.609v-2.781c.001-7.516-6.093-13.61-13.608-13.61z" class="st0"/></g></svg>